# xmcd
#
# Track frame offsets: 
#        150
#        15864
#        29853
#        53182
#        66271
#        97082
#        110259
#        124703
#        140247
#        148298
#        163779
#        183593
#        193444
#        207740
#        224645
#        245604
#
# Disc length: 3675 seconds
#
# Revision: 1
# Processed by: cddbd v1.5.2PL0 Copyright (c) Steve Scherf et al.
# Submitted via: ExactAudioCopyFreeDBPlugin 1.0
#
DISCID=100e5910
DTITLE=Son House - Raw Delta Blues Cd1
DYEAR=2011
DGENRE=Delta Blues
TTITLE0=Death Letter Blues
TTITLE1=Special Rider Blues
TTITLE2=Delta Blues
TTITLE3=American Defense
TTITLE4=Government Fleet Blues
TTITLE5=Depot Blues
TTITLE6=My Black Mama
TTITLE7=Shettland Pony Blues
TTITLE8=Am I Right Or Wrong
TTITLE9=The Jinx Blues 1
TTITLE10=The Jinx Blues 2
TTITLE11=Contry Farm Blues
TTITLE12=Dry Spell Blues
TTITLE13=Levee Camp Blues
TTITLE14=Preachin The Blues
TTITLE15=Walkin Blues
EXTD=2CD
EXTT0=
EXTT1=
EXTT2=
EXTT3=
EXTT4=
EXTT5=
EXTT6=
EXTT7=
EXTT8=
EXTT9=
EXTT10=
EXTT11=
EXTT12=
EXTT13=
EXTT14=
EXTT15=
PLAYORDER=
